# xmcd CD database file
#
# Track frame offsets:
#	150
#	14167
#	27620
#	43655
#	62957
#	73955
#	91150
#	108445
#	119615
#	130755
#	151532
#	163700
#	185740
#	198875
#	212807
#	230455
#	243535
#	257342
#	286197
#
# Disc length: 3992 seconds
#
# Revision: 0
# Processed by: cddbd v1.4PL0 Copyright (c) Steve Scherf et al.
# Submitted via: CDex 1.40Release
#
DISCID=160f9613
DTITLE=Various Artist - Country Music Vol 1
DYEAR=1900
DGENRE=Country
TTITLE0=Country Roads(Live) - John Denver
TTITLE1=D.I.V.O.R.C.E - Tommy Wynette
TTITLE2=Always on my mind - Willie Nelson
TTITLE3=Me and Bobby McGee - Kris
TTITLE4=Silver threads and golden needles - Wynette/Parton/Lynn
TTITLE5=A boy named sue - johnny Cash
TTITLE6=Sylvias Mother - Dr. Hook
TTITLE7=A stranger in my arms - Patsy Cline
TTITLE8=King of the road - Roger miller
TTITLE9=Lonely too long - Patty loveless
TTITLE10=Stand by your man - Tommy Wynette
TTITLE11=Come on, Come on - Mary Carpenter
TTITLE12=Rose Garden - Lynn Anderson
TTITLE13=Highwayman - Cash/Nelson/others
TTITLE14=Picking up after you - Tom Watts
TTITLE15=Tennesse Whisky - George Jones
TTITLE16=Golden Ring - George Jones/ Wynette
TTITLE17=Why worry - chet atkins
TTITLE18=To all the girls i've loved before- Haggard
EXTD=ID3G: 2
EXTT0=
EXTT1=
EXTT2=
EXTT3=
EXTT4=
EXTT5=
EXTT6=
EXTT7=
EXTT8=
EXTT9=
EXTT10=
EXTT11=
EXTT12=
EXTT13=
EXTT14=
EXTT15=
EXTT16=
EXTT17=
EXTT18=
PLAYORDER=
